# xmcd
# 
# Track frame offsets:
#     150
#     5944
#     26386
#     49495
#     71685
#     92728
#     123744
#     145661
#     161772
#     179607
#     202093
#     219072
#     237039
#     256724
#     273775
#     294990
# 
# Disc length: 4056
# 
# Revision: 1
# Processed by: cddbd v1.5.2PL0 Copyright (c) Steve Scherf et al.
# Submitted via: fre:ac v1.0.17
# 
DISCID=e90fd610
DTITLE=Douglas Adams - Per Anhalter durch die Galaxis - vollständige Lesung CD 05
DYEAR=2009
DGENRE=Speech
TTITLE0=62 Per Anhalter durch die Galaxis
TTITLE1=63 Per Anhalter durch die Galaxis
TTITLE2=64 Per Anhalter durch die Galaxis
TTITLE3=65 Per Anhalter durch die Galaxis
TTITLE4=66 Per Anhalter durch die Galaxis
TTITLE5=67 Per Anhalter durch die Galaxis
TTITLE6=68 Per Anhalter durch die Galaxis
TTITLE7=69 Per Anhalter durch die Galaxis
TTITLE8=70 Per Anhalter durch die Galaxis
TTITLE9=71 Per Anhalter durch die Galaxis
TTITLE10=72 Per Anhalter durch die Galaxis
TTITLE11=73 Per Anhalter durch die Galaxis
TTITLE12=74 Per Anhalter durch die Galaxis
TTITLE13=75 Per Anhalter durch die Galaxis
TTITLE14=76 Per Anhalter durch die Galaxis
TTITLE15=77 Per Anhalter durch die Galaxis
EXTD=
EXTT0=
EXTT1=
EXTT2=
EXTT3=
EXTT4=
EXTT5=
EXTT6=
EXTT7=
EXTT8=
EXTT9=
EXTT10=
EXTT11=
EXTT12=
EXTT13=
EXTT14=
EXTT15=
PLAYORDER=
